<svg width="100" height="100" viewBox="0 0 100 100" fill="none" xmlns="http://www.w3.org/2000/svg">
<path d="M59.5833 80.356C60.4833 78.0008 61.0083 75.3146 61.0083 72.4379C61.0083 63.6258 56.2625 56.4611 50.4292 56.4611C44.5458 56.4611 39.8042 63.6258 39.8042 72.4379C39.8042 75.2649 40.2792 77.9512 41.1792 80.2608C21.775 82.2889 8.1125 90.3477 2.5625 93.9735C11.9083 80.5878 21.6833 64.8965 31.025 46.846C33.35 42.3676 35.5333 37.9388 37.5708 33.6051C38.375 34.1225 39.1833 34.6896 40.0833 35.2566C44.2583 37.8477 48.15 39.2633 50.9958 40.0166C48.9083 38.4603 46.6333 36.577 44.3083 34.2674C42.5542 32.5248 40.9875 30.7782 39.6583 29.0811C43.5958 20.505 47.0125 12.2558 50 4.43295C54.9792 17.5331 61.1958 31.8129 68.975 46.846C74.0042 56.5066 79.1292 65.5091 84.25 73.8038C82.7792 73.005 81.1667 72.2475 79.4583 71.5894C76.5167 70.4594 73.7667 69.7517 71.3917 69.3295C74.6167 70.9313 78.3667 73.0546 82.3042 75.8816C84.8667 77.7691 87.1417 79.6523 89.0875 81.4901C89.1333 81.5356 89.1333 81.5356 89.1833 81.5853C91.8875 85.9686 94.6875 90.0207 97.4375 93.9777C91.9833 90.3932 78.5583 82.4752 59.5833 80.356Z" fill="black"/>
</svg>
