<svg width="80" height="80" viewBox="0 0 80 80" fill="none" xmlns="http://www.w3.org/2000/svg">
<path d="M25.5999 4.79999C15.0079 4.79999 6.3999 13.408 6.3999 24V56C6.3999 66.592 15.0079 75.2 25.5999 75.2H57.5999C68.1919 75.2 76.7999 66.592 76.7999 56V24C76.7999 13.408 68.1919 4.79999 57.5999 4.79999H25.5999ZM20.1905 28.9125C21.3105 28.9125 22.1437 29.7127 22.1437 30.7687C22.1437 31.8087 21.3105 32.6094 20.1905 32.6094C19.0545 32.6094 18.2249 31.8087 18.2249 30.7687C18.2249 29.7127 19.0545 28.9125 20.1905 28.9125ZM36.8624 29.825C42.7024 29.825 46.303 33.9029 46.303 40.4469C46.303 46.9749 42.7344 51.0875 36.8624 51.0875C30.9584 51.0875 27.3749 46.9909 27.3749 40.4469C27.3749 33.8869 31.0384 29.825 36.8624 29.825ZM57.553 29.825C61.665 29.825 64.6704 32.2229 64.8624 35.6469H61.7905C61.4865 33.7749 59.871 32.6094 57.503 32.6094C55.007 32.6094 53.3593 33.7912 53.3593 35.6312C53.3593 37.0712 54.4158 37.9041 57.0718 38.5281L59.2968 39.0719C63.4728 40.0479 65.1843 41.7284 65.1843 44.7844C65.1843 48.6724 62.1753 51.1031 57.3593 51.1031C52.8633 51.1031 49.8395 48.7851 49.6155 45.1531H52.7374C53.0094 47.0731 54.8959 48.3031 57.5999 48.3031C60.1279 48.3031 61.9843 46.9924 61.9843 45.1844C61.9843 43.6484 60.816 42.7212 58.128 42.0812L55.503 41.4562C51.839 40.5922 50.1593 38.8166 50.1593 35.8406C50.1593 32.2246 53.121 29.825 57.553 29.825ZM36.8624 32.7531C33.0384 32.7531 30.6093 35.7429 30.6093 40.4469C30.6093 45.1349 32.9584 48.1594 36.8624 48.1594C40.7184 48.1594 43.0874 45.1349 43.0874 40.4469C43.0874 35.7429 40.7184 32.7531 36.8624 32.7531ZM18.6874 35.2969H21.6968V50.6094H18.6874V35.2969Z" fill="black"/>
</svg>
