<svg width="80" height="80" viewBox="0 0 80 80" fill="none" xmlns="http://www.w3.org/2000/svg">
<g clip-path="url(#clip0_5_11)">
<path d="M26.05 0.0499983C25.8438 0.0874983 25.6313 0.124998 25.45 0.249998C24.7188 0.743749 24.5562 1.76875 25.05 2.5L28.5 7.65C23.1688 10.475 19.1938 15.1687 17.9 20.8H62.1C60.8063 15.1687 56.8312 10.475 51.5 7.65L54.95 2.5C55.4438 1.76875 55.2812 0.743749 54.55 0.249998C53.8125 -0.243752 52.7938 -0.0312518 52.3 0.699998L48.5 6.3C45.8625 5.3375 43 4.8 40 4.8C37 4.8 34.1375 5.3375 31.5 6.3L27.7 0.699998C27.3312 0.149998 26.6625 -0.0687518 26.05 0.0499983ZM31.2 12.8C32.525 12.8 33.6 13.875 33.6 15.2C33.6 16.5312 32.525 17.6 31.2 17.6C29.8688 17.6 28.8 16.5312 28.8 15.2C28.8 13.875 29.8688 12.8 31.2 12.8ZM48.8 12.8C50.1312 12.8 51.2 13.875 51.2 15.2C51.2 16.5312 50.1312 17.6 48.8 17.6C47.475 17.6 46.4 16.5312 46.4 15.2C46.4 13.875 47.475 12.8 48.8 12.8ZM12.8 24C10.15 24 8 26.15 8 28.8V51.2C8 53.85 10.15 56 12.8 56C13.3625 56 13.9 55.8813 14.4 55.7V24.3C13.9 24.1187 13.3625 24 12.8 24ZM17.6 24V59.2C17.6 61.8438 19.7562 64 22.4 64H57.6C60.2438 64 62.4 61.8438 62.4 59.2V24H17.6ZM67.2 24C66.6375 24 66.1 24.1187 65.6 24.3V55.7C66.1 55.875 66.6375 56 67.2 56C69.85 56 72 53.85 72 51.2V28.8C72 26.15 69.85 24 67.2 24ZM24 67.2V73.6C24 77.1312 26.8688 80 30.4 80C33.9312 80 36.8 77.1312 36.8 73.6V67.2H24ZM43.2 67.2V73.6C43.2 77.1312 46.0688 80 49.6 80C53.1312 80 56 77.1312 56 73.6V67.2H43.2Z" fill="black"/>
</g>
<defs>
<clipPath id="clip0_5_11">
<rect width="80" height="80" fill="white"/>
</clipPath>
</defs>
</svg>
