<svg width="50" height="50" viewBox="0 0 50 50" fill="none" xmlns="http://www.w3.org/2000/svg">
<path d="M19.852 7.761L4.852 10.011C4.362 10.085 4 10.505 4 11V23C4 23.553 4.448 24 5 24H20C20.552 24 21 23.553 21 23V8.75C21 8.459 20.873 8.183 20.652 7.992C20.432 7.803 20.139 7.721 19.852 7.761ZM45.652 4.242C45.432 4.053 45.14 3.971 44.851 4.011L23.851 7.161C23.362 7.235 23 7.655 23 8.15V23C23 23.553 23.448 24 24 24H45C45.552 24 46 23.553 46 23V5C46 4.709 45.873 4.433 45.652 4.242ZM20 26H5C4.448 26 4 26.447 4 27V39C4 39.495 4.362 39.915 4.852 39.989L19.852 42.239C19.902 42.246 19.951 42.25 20 42.25C20.238 42.25 20.47 42.165 20.652 42.008C20.873 41.817 21 41.541 21 41.25V27C21 26.447 20.552 26 20 26ZM45 26H24C23.448 26 23 26.447 23 27V41.85C23 42.345 23.362 42.765 23.852 42.839L44.852 45.989C44.901 45.996 44.951 46 45 46C45.238 46 45.47 45.915 45.652 45.758C45.873 45.567 46 45.291 46 45V27C46 26.447 45.552 26 45 26Z" fill="black"/>
</svg>
