<svg width="83" height="83" viewBox="0 0 83 83" fill="none" xmlns="http://www.w3.org/2000/svg">
<path d="M41.5001 3.31995C20.4335 3.31995 3.32007 20.4334 3.32007 41.4999C3.32007 62.5665 20.4335 79.6799 41.5001 79.6799C62.5666 79.6799 79.6801 62.5665 79.6801 41.4999C79.6801 20.4334 62.5666 3.31995 41.5001 3.31995ZM41.5001 6.63995C60.7724 6.63995 76.3601 22.2276 76.3601 41.4999C76.3601 60.7723 60.7724 76.3599 41.5001 76.3599C22.2278 76.3599 6.64007 60.7723 6.64007 41.4999C6.64007 22.2276 22.2278 6.63995 41.5001 6.63995ZM56.586 23.2983C55.4505 23.2983 54.1747 23.5613 52.6824 24.0991C50.365 24.9341 23.1085 36.5069 20.0076 37.8233C18.2347 38.577 14.9336 39.9788 14.9336 43.3221C14.9336 45.5382 16.2322 47.1232 18.7886 48.0362C20.163 48.5259 23.4275 49.5154 25.3216 50.0366C26.125 50.2574 26.9788 50.3706 27.857 50.3706C29.5751 50.3706 31.3041 49.9425 32.6586 49.1872C32.647 49.4661 32.6546 49.7479 32.6878 50.0301C32.892 51.7731 33.9668 53.4125 35.5604 54.4168C36.6029 55.0742 45.1178 60.7794 46.3893 61.6858C48.1755 62.9623 50.15 63.6376 52.0956 63.6376C55.814 63.6376 57.0615 59.7983 57.6624 57.954C58.5339 55.2765 61.7973 33.5023 62.1658 29.6627C62.4165 27.0316 61.3199 24.865 59.2316 23.8657C58.4498 23.4889 57.5571 23.2983 56.586 23.2983ZM56.586 26.6183C57.0425 26.6183 57.45 26.6938 57.7953 26.8615C58.5805 27.2383 58.9799 28.0783 58.8588 29.3482C58.457 33.5364 55.2016 54.7948 54.5077 56.9263C53.9135 58.749 53.2874 60.3176 52.0956 60.3176C50.9037 60.3176 49.6016 59.8998 48.3184 58.9818C47.0352 58.0655 38.5142 52.3512 37.3306 51.6058C36.2931 50.9518 35.1951 49.3214 36.7406 47.7444C38.0138 46.4463 47.6717 37.0726 48.4967 36.2476C49.1109 35.6317 48.8237 34.8891 48.2211 34.8891C48.0136 34.8891 47.7651 34.9766 47.5078 35.1874C46.4986 36.0124 32.4278 45.428 31.2094 46.1849C30.4026 46.6862 29.1534 47.0473 27.8569 47.0473C27.3042 47.0473 26.7445 46.9811 26.2067 46.8333C24.3342 46.3171 21.1654 45.3557 19.9071 44.9075C18.697 44.4759 18.2568 44.0624 18.2568 43.322C18.2568 42.2696 19.7423 41.5431 21.3077 40.8774C22.9611 40.1753 51.5697 28.0264 53.8074 27.2213C54.8432 26.8462 55.7908 26.6183 56.586 26.6183Z" fill="white"/>
</svg>
